<?xml version="1.0" encoding="UTF-8"?>
<svg version="1.1" xmlns="http://www.w3.org/2000/svg" width="1200" height="593">
<path d="M0 0 C0.83047852 0.16628906 1.66095703 0.33257812 2.51660156 0.50390625 C38.86358383 7.83028566 72.50011691 24.7868254 99.74609375 49.93359375 C101.7463006 51.76740558 103.79343238 53.51037367 105.875 55.25 C142.49022116 87.38921216 165.23142634 136.04229504 175 183 C176.53765479 178.68312674 177.57962137 174.46322783 178.41065979 169.95869446 C178.5382532 169.27373136 178.6658466 168.58876827 178.79730648 167.88304871 C179.2212368 165.60155804 179.63905036 163.31899126 180.05688477 161.03637695 C180.36059724 159.39499082 180.66469446 157.75367583 180.96914673 156.11242676 C181.62259021 152.58527361 182.27333135 149.0576365 182.92196846 145.52959633 C183.94721763 139.95326747 184.97855819 134.37807587 186.01072693 128.80302429 C187.6418575 119.98882117 189.26898104 111.17388396 190.89435667 102.35861796 C193.80728722 86.56046033 196.72503627 70.76319369 199.64723057 54.96674699 C200.67281689 49.42172155 201.69599539 43.87625872 202.71725285 38.33043444 C203.351884 34.88625102 203.98824165 31.44238818 204.62503433 27.99860382 C204.92047621 26.39873002 205.2151709 24.79871804 205.50907326 23.19856071 C205.90952663 21.01879065 206.31259822 18.8395206 206.71632385 16.66035461 C207.0539517 14.82891891 207.0539517 14.82891891 207.39840031 12.9604845 C208 10 208 10 209 7 C424.82 7 640.64 7 863 7 C861.87498631 19.37515063 861.87498631 19.37515063 860.93737793 24.01013184 C860.72709457 25.06427277 860.51681122 26.1184137 860.30015564 27.20449829 C859.95725243 28.8773439 859.95725243 28.8773439 859.60742188 30.58398438 C859.36504288 31.79021454 859.12266388 32.9964447 858.87294006 34.23922729 C858.214006 37.51229729 857.54992554 40.78423761 856.88331032 44.05574608 C856.18443234 47.49147303 855.49197611 50.9284944 854.79870605 54.36535645 C853.6358342 60.12555428 852.46859657 65.88485287 851.29833984 71.64355469 C849.79634159 79.03483327 848.3015933 86.42755865 846.80910492 93.82076263 C845.52340361 100.18935434 844.23445672 106.55728847 842.94495583 112.92511177 C842.53134986 114.9682567 842.11817951 117.01148936 841.70506287 119.05473328 C840.93663393 122.85403454 840.16482622 126.65264496 839.39257812 130.45117188 C839.04967491 132.14830826 839.04967491 132.14830826 838.69984436 133.87973022 C838.489561 134.91131256 838.27927765 135.9428949 838.06262207 137.0057373 C837.88048409 137.90310356 837.6983461 138.80046982 837.51068878 139.72502899 C837 142 837 142 836 145 C773.63 145.33 711.26 145.66 647 146 C646.34 150.62 645.68 155.24 645 160 C644.17165965 164.66891776 643.32245164 169.32726487 642.43359375 173.984375 C642.07516136 175.87860199 642.07516136 175.87860199 641.70948792 177.81109619 C641.20981083 180.44997667 640.70792212 183.08842344 640.2043457 185.7265625 C639.559 189.10834694 638.91930014 192.49117181 638.28117275 195.8743248 C637.66824009 199.11989794 637.05073406 202.36459973 636.43359375 205.609375 C636.20441757 206.82381287 635.97524139 208.03825073 635.73912048 209.28948975 C635.52542313 210.40535461 635.31172577 211.52121948 635.09155273 212.67089844 C634.90439194 213.65459412 634.71723114 214.63828979 634.5243988 215.65179443 C634 218 634 218 633 220 C633.67836914 219.99777939 634.35673828 219.99555878 635.05566406 219.99327087 C644.37043203 219.96450796 653.68519524 219.94760595 663 219.9375 C664.17456379 219.93621597 664.17456379 219.93621597 665.37285614 219.93490601 C699.45865805 219.90225687 733.54090982 220.18046165 767.625 220.5 C768.90093018 220.51195782 770.17686035 220.52391563 771.49145508 220.53623581 C787.32769331 220.68517081 803.16387134 220.83985055 819 221 C819.25394861 228.12735473 818.27188946 234.88342057 817.17993164 241.91772461 C816.98646652 243.19500427 816.7930014 244.47228394 816.59367371 245.78826904 C816.0660587 249.27001135 815.53101695 252.75057403 814.99434972 256.23093104 C814.43313966 259.87737766 813.87807534 263.52476032 813.3221283 267.17201233 C812.38891089 273.28792427 811.45093133 279.40309115 810.51000977 285.51782227 C809.42124847 292.59365337 808.33969789 299.67055794 807.26203257 306.74808687 C806.22473937 313.55958306 805.18277165 320.37035581 804.13851738 327.18078804 C803.69408809 330.07967786 803.25124514 332.97880351 802.80964851 335.87812614 C802.19442381 339.91551659 801.57233384 343.95181924 800.94946289 347.98803711 C800.67433365 349.80121178 800.67433365 349.80121178 800.39364624 351.65101624 C800.13915962 353.28911758 800.13915962 353.28911758 799.87953186 354.96031189 C799.73296678 355.9150386 799.58640169 356.8697653 799.43539524 357.85342312 C799 360 799 360 798 361 C795.53368729 361.09770695 793.09541002 361.12996098 790.62864685 361.12025452 C789.84783392 361.12110894 789.067021 361.12196337 788.26254708 361.12284368 C785.6260991 361.12450086 782.98971368 361.11897326 780.35327148 361.11352539 C778.47137453 361.11324354 776.58947746 361.1134012 774.70758057 361.1139679 C769.58176065 361.11425597 764.45596392 361.10835767 759.33014941 361.10139394 C753.97962736 361.09516202 748.62910483 361.09455673 743.27857971 361.09336853 C733.13901642 361.09025474 722.99946386 361.0820407 712.8599053 361.07201904 C701.31959526 361.06085939 689.77928472 361.05534783 678.23897064 361.05032361 C654.49264114 361.03985813 630.74632117 361.02225776 607 361 C606.94403939 361.62883024 606.88807878 362.25766048 606.8304224 362.90554619 C606.32137341 368.33781408 605.62643532 373.66272519 604.60131836 379.02001953 C604.46462234 379.75299759 604.32792633 380.48597565 604.18708801 381.24116516 C603.74198053 383.62247927 603.29098118 386.00263412 602.83984375 388.3828125 C602.52702175 390.04996969 602.21457367 391.71719708 601.90248108 393.38449097 C601.08586213 397.7416318 600.26421481 402.09780924 599.44146729 406.45379639 C598.60047929 410.91132814 597.76431853 415.36976504 596.92773438 419.828125 C595.2898425 428.55296987 593.64629049 437.27673619 592 446 C593.09461988 445.92912957 594.18923977 445.85825914 595.31702995 445.78524113 C606.10713507 445.11742977 616.84040841 444.86034321 627.64892578 444.88647461 C629.32643634 444.8867577 631.00394703 444.88659638 632.68145752 444.8860321 C637.17199515 444.88574886 641.66250527 444.89156798 646.15303659 444.89860606 C650.86950949 444.90491944 655.58598324 444.90544964 660.30245972 444.90663147 C669.20544043 444.9097215 678.10840865 444.91790303 687.01138389 444.92798096 C697.15912768 444.939215 707.30687212 444.9446708 717.4546206 444.94967639 C738.30308733 444.96008797 759.15154288 444.97764163 780 445 C776.74371369 462.97826214 773.24237464 480.89107956 769.515625 498.77734375 C769.00927333 501.21777196 768.50315438 503.65824846 767.99725342 506.09877014 C766.95026595 511.14669481 765.90145426 516.19423527 764.85107422 521.24145508 C763.50464872 527.71129992 762.16152197 534.18182397 760.81955338 540.65259457 C759.53184285 546.86107257 758.24255239 553.06922213 756.953125 559.27734375 C756.70868904 560.45486647 756.46425308 561.63238918 756.21240997 562.84559441 C755.52431876 566.15888325 754.83510289 569.47193598 754.14550781 572.78491211 C753.94189133 573.76604477 753.73827484 574.74717743 753.52848816 575.75804138 C753.34081375 576.65849182 753.15313934 577.55894226 752.95977783 578.48667908 C752.79758381 579.26647597 752.63538979 580.04627287 752.46828079 580.84969997 C752.01978656 582.90914206 751.51119518 584.95521927 751 587 C642.1 587 533.2 587 421 587 C421.59846775 581.61379028 422.19869869 576.46622829 423.15391541 571.16889954 C423.5003157 569.23538132 423.5003157 569.23538132 423.85371399 567.26280212 C424.10806597 565.86049366 424.36247776 564.45819605 424.61694336 563.0559082 C424.88683041 561.55605562 425.15645602 560.05615598 425.42584229 558.55621338 C426.15715688 554.48870224 426.89221739 550.42187624 427.62802196 546.35517526 C428.40879117 542.03664324 429.18630109 537.71752431 429.96424866 533.39848328 C431.27954849 526.09886431 432.59714648 518.79966318 433.91625977 511.50073242 C435.41309018 503.21838212 436.90708248 494.93552443 438.3992433 486.65233165 C440.01477276 477.68440978 441.63234618 468.71685739 443.25054097 459.74941611 C443.70146363 457.2499474 444.15206314 454.75042064 444.60258293 452.25087929 C449.97077203 422.48197423 455.49185899 392.74396146 461 363 C403.91 363 346.82 363 288 363 C286.35 371.91 284.7 380.82 283 390 C282.1072976 394.52854174 281.20835527 399.05033202 280.26782227 403.56835938 C279.92006996 405.25626587 279.92006996 405.25626587 279.56529236 406.97827148 C278.81829869 410.60064775 278.06743731 414.22220887 277.31640625 417.84375 C276.77394543 420.46955946 276.23169102 423.0954108 275.68968201 425.72131348 C274.5561055 431.21107407 273.42051614 436.70041487 272.28344727 442.18945312 C271.15065453 447.6578717 270.01932533 453.12658959 268.88989258 458.59570312 C260.32344002 500.07722328 251.66358737 541.53854617 243 583 C196.8 583 150.6 583 103 583 C103.61003397 575.67959241 104.23378319 568.762311 105.57885742 561.60839844 C105.73517639 560.75096542 105.89149536 559.89353241 106.05255127 559.01011658 C106.56467855 556.20882565 107.0849808 553.40912343 107.60546875 550.609375 C107.97129976 548.61819296 108.33663059 546.62691896 108.70149231 544.63555908 C109.6623242 539.39940846 110.63018229 534.16458042 111.5994873 528.92999268 C112.56363146 523.71586824 113.52065876 518.5004386 114.47851562 513.28515625 C117.25534321 498.18056644 120.03374511 483.0762914 122.88916016 467.98632812 C123.03319558 467.22394962 123.17723101 466.46157112 123.32563114 465.67609024 C123.98506694 462.18687146 124.64721342 458.69821839 125.31523132 455.21063232 C125.54031876 454.02382874 125.76540619 452.83702515 125.99731445 451.61425781 C126.29023125 450.08276093 126.29023125 450.08276093 126.58906555 448.52032471 C127.0804616 445.93211754 127.0804616 445.93211754 127 443 C126.40574219 443.77601563 125.81148438 444.55203125 125.19921875 445.3515625 C115.14956577 458.45739444 104.92260983 471.40256142 94.47216797 484.19140625 C93.17270629 485.78782617 91.88431606 487.39324434 90.59765625 489 C77.97148672 504.70850748 63.88941966 519.57893934 48 532 C46.90899833 532.88007691 45.8192085 533.76165767 44.73046875 534.64453125 C15.41094795 558.27655596 -18.2798793 574.61253029 -55 583 C-55.78906738 583.18159668 -56.57813477 583.36319336 -57.39111328 583.55029297 C-114.26296769 596.20247721 -181.38592 592.33923257 -231.81640625 561.08203125 C-244.91961674 552.66098353 -257.28657195 543.33683873 -268 532 C-268.845625 531.154375 -269.69125 530.30875 -270.5625 529.4375 C-271.366875 528.633125 -272.17125 527.82875 -273 527 C-273.80244141 526.26716797 -273.80244141 526.26716797 -274.62109375 525.51953125 C-287.1438761 513.72572583 -296.51347696 498.83328172 -305 484 C-305.39670898 483.31502441 -305.79341797 482.63004883 -306.20214844 481.92431641 C-322.04761862 454.31760244 -330.50415177 423.3315642 -335 392 C-335.28145874 390.04743286 -335.28145874 390.04743286 -335.56860352 388.05541992 C-337.33584641 374.75307112 -337.35549741 361.46261199 -337.3125 348.0625 C-337.31067719 346.88647217 -337.30885437 345.71044434 -337.30697632 344.4987793 C-337.26245892 327.45630125 -336.75926259 310.84616717 -334 294 C-333.65586097 291.69406844 -333.31212908 289.3880761 -332.96875 287.08203125 C-327.20188563 249.92281976 -316.78882454 213.16644733 -301 179 C-300.2756623 177.39079571 -299.55170569 175.78141983 -298.828125 174.171875 C-285.45496717 144.80991385 -267.07819151 118.31974346 -246 94 C-245.30777344 93.19433594 -244.61554688 92.38867188 -243.90234375 91.55859375 C-233.25387834 79.43288458 -221.78849275 67.8585643 -209 58 C-207.948576 57.14953419 -206.89920407 56.29652709 -205.8515625 55.44140625 C-170.36018525 26.66335872 -129.6762758 8.8991677 -85 0 C-84.13922852 -0.17934082 -83.27845703 -0.35868164 -82.39160156 -0.54345703 C-56.54740959 -5.73808803 -25.75021264 -5.59739325 0 0 Z M-106.875 20.5625 C-107.95740967 20.90692139 -109.03981934 21.25134277 -110.1550293 21.60620117 C-142.26527966 32.12390584 -171.73185729 48.8546901 -198 70 C-198.88042969 70.68835938 -199.76085937 71.37671875 -200.66796875 72.0859375 C-213.33280655 82.15046148 -226.20066348 93.52316106 -236.3125 106.1875 C-239.41983908 110.0559272 -242.58600612 113.85558648 -245.8125 117.625 C-258.00469421 132.31574865 -267.65856059 148.38908356 -277 165 C-277.42909668 165.75216797 -277.85819336 166.50433594 -278.30029297 167.27929688 C-298.888637 203.50097049 -311.32404117 244.45404136 -317.8125 285.4375 C-318.1050769 287.28190674 -318.1050769 287.28190674 -318.40356445 289.16357422 C-321.2022218 307.91099832 -322.35345701 326.55420931 -322.31567383 345.50317383 C-322.31251201 348.79997857 -322.33610644 352.09588297 -322.36132812 355.39257812 C-322.54346485 416.69979936 -301.43989411 474.6561955 -258.4375 518.8125 C-253.56065928 523.54975315 -248.36594681 527.83028337 -243 532 C-242.44038574 532.43602539 -241.88077148 532.87205078 -241.30419922 533.32128906 C-232.02007283 540.50060527 -222.42302397 546.60941173 -212 552 C-211.09628662 552.47131348 -211.09628662 552.47131348 -210.17431641 552.95214844 C-181.64441659 567.62019569 -151.6869603 571.3728538 -120.03466797 571.31567383 C-116.40170986 571.31252316 -112.76957641 571.3360283 -109.13671875 571.36132812 C-54.17046909 571.51094625 -3.76647498 553.77090885 39 519 C39.5784668 518.53722656 40.15693359 518.07445312 40.75292969 517.59765625 C48.91404244 511.03834606 56.38518058 503.81030222 63.8125 496.4375 C65.12009277 495.14392578 65.12009277 495.14392578 66.45410156 493.82421875 C72.39046063 487.85848295 77.78561 481.6025679 83 475 C83.57564697 474.2783667 84.15129395 473.5567334 84.74438477 472.81323242 C100.59362367 452.81143944 113.54906104 431.09606706 125 408.3125 C125.44472656 407.42860596 125.88945312 406.54471191 126.34765625 405.6340332 C131.72697082 395.73720895 131.72697082 395.73720895 134 385 C120.35264432 384.69828438 106.70608648 384.46755208 93.05607033 384.32644176 C86.71700565 384.25870012 80.38022848 384.16688831 74.04248047 384.01928711 C67.92144835 383.87763145 61.80261028 383.80022542 55.68006516 383.76659584 C53.34904818 383.74264453 51.01814641 383.69586721 48.68806839 383.62550926 C35.69883358 382.65490899 35.69883358 382.65490899 24.42230225 387.78726196 C21.75243814 390.90754798 19.88192941 394.35498918 18 398 C16.71638908 399.85367483 15.40854213 401.6911501 14.0625 403.5 C13.42183594 404.38558594 12.78117187 405.27117187 12.12109375 406.18359375 C-13.50950315 440.21611745 -49.72440867 462.70229937 -92.30859375 468.69921875 C-122.28166046 472.04889384 -152.0021896 467.79322948 -176.453125 448.95703125 C-187.72460131 439.80293679 -197.39113675 429.37033485 -205 417 C-205.91458984 415.61167969 -205.91458984 415.61167969 -206.84765625 414.1953125 C-233.31798881 372.19183973 -227.08295164 314.23188633 -216.98413086 268.28417969 C-214.06910097 255.73995398 -210.07627341 243.82830052 -205 232 C-204.65598145 231.19369141 -204.31196289 230.38738281 -203.95751953 229.55664062 C-196.51330766 212.38463115 -186.63652086 196.64155647 -175 182 C-173.94425781 180.65615234 -173.94425781 180.65615234 -172.8671875 179.28515625 C-145.07396532 144.56853284 -112.1373932 124.44918655 -67.31835938 119.18969727 C-35.76307026 116.60771963 -7.52266666 121.32708346 17.6875 141.375 C41.00042503 161.21291595 53.62850834 185.69789618 63.12841797 214.35253906 C63.40531967 215.18560577 63.68222137 216.01867249 63.96751404 216.87698364 C64.64572751 218.91775057 65.32296265 220.95884259 66 223 C78.63001462 222.89267673 91.25996998 222.78008021 103.88987637 222.66066074 C109.75379448 222.60538334 115.61771754 222.55195578 121.48168945 222.50268555 C127.13566145 222.45511288 132.78957066 222.40277293 138.44346809 222.34705925 C140.60571807 222.32660342 142.76798528 222.30789581 144.93026543 222.29092598 C147.94763325 222.26695316 150.96488119 222.23688925 153.98217773 222.20532227 C154.8856041 222.1995668 155.78903046 222.19381134 156.71983337 222.18788147 C160.67724123 222.53308865 160.67724123 222.53308865 164 221 C165.41225755 171.5709859 135.21493099 110.97814971 102.44921875 75.58203125 C101.64097656 74.72996094 100.83273437 73.87789062 100 73 C99.54318848 72.51063965 99.08637695 72.0212793 98.61572266 71.51708984 C67.12971245 37.96196911 21.12786089 15.80452987 -24.94006348 13.87698364 C-31.3164091 13.70112996 -37.69086112 13.67156922 -44.06933594 13.68432617 C-47.36426841 13.6874897 -50.65830228 13.66390736 -53.953125 13.63867188 C-72.02306561 13.58270296 -89.59934646 14.92674461 -106.875 20.5625 Z M223 25 C217.83020608 51.25580785 212.80324976 77.53421156 207.93728495 103.84796023 C207.06026453 108.58808384 206.18090519 113.32777366 205.30184937 118.06752014 C203.79455134 126.19626777 202.28858409 134.32526094 200.78359985 142.45443726 C198.39437811 155.35971484 196.00241855 168.26448426 193.61010742 181.16918945 C192.79314749 185.57624453 191.97621047 189.98330386 191.1592865 194.3903656 C190.95639206 195.48491595 190.75349763 196.57946631 190.54445487 197.70718485 C189.10247841 205.48641627 187.66089495 213.26572045 186.21949768 221.0450592 C181.02414719 249.0844323 175.8238202 277.12287595 170.6171875 305.16015625 C170.45209167 306.04918892 170.28699584 306.93822159 170.11689711 307.85419464 C168.80281831 314.93039974 167.4887091 322.00659919 166.17453742 329.08278704 C163.78981962 341.92335954 161.40596861 354.76409266 159.02294922 367.60498047 C158.86803111 368.43975182 158.71311301 369.27452317 158.55350041 370.13459063 C157.1621527 377.6318798 155.77087395 385.12918178 154.37965775 392.62649536 C150.84390218 411.68074977 147.30662595 430.7347201 143.76625502 449.78811753 C141.20710369 463.56097366 138.64981634 477.3341748 136.09440899 491.1077261 C134.56505939 499.35049076 133.03416698 507.59296554 131.50111878 515.83504313 C130.35891475 521.97673039 129.21948352 528.11892891 128.08115387 534.26133537 C127.61732198 536.76166995 127.15256212 539.26183257 126.68682098 541.76181221 C126.05640817 545.14642053 125.42926234 548.53161781 124.80297852 551.91699219 C124.61783093 552.90663058 124.43268335 553.89626898 124.24192524 554.91589642 C123.99371666 556.26327751 123.99371666 556.26327751 123.74049377 557.63787842 C123.59639855 558.41374676 123.45230333 559.1896151 123.30384159 559.9889946 C122.92530308 562.1554173 122.92530308 562.1554173 123 565 C158.31 565.33 193.62 565.66 230 566 C231.381875 558.41 232.76375 550.82 234.1875 543 C240.19715786 510.75009565 247.27417106 478.74051135 254.38549805 446.71875 C258.53238328 428.03105119 262.62344553 409.33800561 266.39453125 390.5703125 C266.55148657 389.79469845 266.70844189 389.0190844 266.87015343 388.21996689 C269.56435177 374.86592336 271.81606868 361.4459978 274 348 C301.37634731 347.43361887 328.75131418 346.94309627 356.1328125 346.71875 C357.28495995 346.70920288 358.43710739 346.69965576 359.6241684 346.68981934 C368.98164869 346.61310346 378.33917092 346.5422179 387.69671631 346.47393799 C395.90461958 346.41403036 404.11248573 346.35090546 412.3203125 346.28125 C413.42771034 346.27186401 414.53510818 346.26247803 415.67606354 346.25280762 C432.13084125 346.10706701 448.56228243 345.79625673 465 345 C466.67899941 339.51745289 467.80381002 334.05408731 468.78759766 328.40869141 C468.95370041 327.47293274 469.11980316 326.53717407 469.29093933 325.57305908 C469.83552601 322.49984185 470.37486056 319.42572866 470.9140625 316.3515625 C471.29205067 314.21156648 471.67034077 312.07162377 472.04891968 309.93173218 C472.83952502 305.45862055 473.62775734 300.98509998 474.4140625 296.51123047 C475.42424939 290.76359073 476.43839461 285.01665896 477.45405006 279.26998329 C478.42114234 273.7973976 479.38649809 268.32450611 480.3515625 262.8515625 C480.53677082 261.80183887 480.72197914 260.75211525 480.91279984 259.67058182 C481.43321615 256.71886831 481.95242042 253.76694447 482.47119141 250.81494141 C482.62701187 249.9318631 482.78283234 249.04878479 482.94337463 248.13894653 C483.6785629 244.58954115 483.6785629 244.58954115 484 241 C477.15308106 239.74099187 470.33503725 239.82585859 463.39013672 239.79467773 C462.01072914 239.7850832 460.6313244 239.77507223 459.25192261 239.76467896 C455.51032124 239.7376979 451.76870749 239.71662649 448.02706289 239.69667697 C444.06986962 239.67462135 440.11271244 239.64729551 436.1555481 239.62062073 C429.47920385 239.57635727 422.80284582 239.53561889 416.12646484 239.49731445 C407.67904193 239.44883815 399.23166246 239.3950636 390.78428459 239.33933926 C383.41032245 239.29070711 376.03634667 239.2442702 368.66236734 239.1983273 C367.1091452 239.18862095 365.55592348 239.17884605 364.00270224 239.16899753 C340.66823218 239.02105537 317.33492737 238.97602954 294 239 C294.29016227 237.77215381 294.29016227 237.77215381 294.58618641 236.51950264 C296.20692906 229.59154579 297.70464745 222.66440108 298.99291992 215.66748047 C299.25692345 214.25271675 299.25692345 214.25271675 299.52626038 212.80937195 C300.09714803 209.74582677 300.66396352 206.68154584 301.23046875 203.6171875 C301.62957538 201.46815891 302.02885506 199.31916246 302.42829895 197.17019653 C303.25961769 192.69420611 304.08891885 188.21784802 304.91674805 183.74121094 C305.97890665 177.99826667 307.04607492 172.25626653 308.11471081 166.51452446 C308.93762979 162.09007706 309.75798118 157.66515664 310.57753944 153.2400856 C310.97028695 151.12119151 311.36382671 149.00244412 311.75816917 146.88384628 C312.30647495 143.93589776 312.85133711 140.98733344 313.39526367 138.03857422 C313.55886383 137.16276199 313.72246399 136.28694977 313.89102173 135.38459778 C314.03814102 134.58308792 314.18526031 133.78157806 314.33683777 132.95578003 C314.4656795 132.26011869 314.59452124 131.56445736 314.72726727 130.84771538 C315.07301161 128.81664864 315.07301161 128.81664864 315 126 C316.1753833 126.01252808 317.3507666 126.02505615 318.56176758 126.03796387 C333.70777846 126.19868761 348.85386048 126.35190493 364 126.5 C365.21426163 126.51187725 366.42852325 126.5237545 367.67958069 126.53599167 C401.7034232 126.86670905 435.72445575 127.09645763 469.75 127.0625 C471.04626312 127.06121597 471.04626312 127.06121597 472.36871338 127.05990601 C482.57916744 127.04899817 492.78958252 127.02973869 503 127 C504.84029728 121.93670045 505.93471482 116.86796441 506.97119141 111.59814453 C507.1568013 110.67067917 507.34241119 109.74321381 507.53364563 108.78764343 C508.14326944 105.73674854 508.74744424 102.6848019 509.3515625 99.6328125 C509.7743527 97.51139744 510.1974837 95.39005028 510.62094116 93.26876831 C511.7323677 87.6963928 512.83917018 82.12310862 513.94500732 76.54962158 C515.07512644 70.85804509 516.2096231 65.16734148 517.34375 59.4765625 C519.56678153 48.31855756 521.78492829 37.15958763 524 26 C506.45847677 25.81757672 488.91680307 25.65301225 471.375 25.5 C470.69510435 25.49405146 470.01520869 25.48810292 469.31471014 25.48197412 C413.56395724 24.9955914 357.81515588 24.91278949 302.0625 24.9375 C301.07695098 24.93792423 300.09140196 24.93834846 299.07598782 24.93878555 C273.7173158 24.94988606 248.35865667 24.97001926 223 25 Z M540 26 C535.483125 50.42 530.96625 74.84 526.3125 100 C523.36330648 115.94401508 520.41410328 131.88802838 517.46484375 147.83203125 C517.27960105 148.83347302 517.09435834 149.83491478 516.90350223 150.86670327 C515.12532545 160.47971613 513.34714825 170.09272892 511.56896687 179.70574093 C509.5996042 190.35230518 507.63025812 200.99887249 505.66094971 211.64544678 C505.37288413 213.20280005 505.37288413 213.20280005 505.07899904 214.79161501 C504.30455875 218.97843051 503.53011858 223.16524604 502.75568199 227.35206223 C500.62448121 238.87390865 498.49321124 250.39574227 496.36175537 261.9175415 C495.77897533 265.06783592 495.19619637 268.21813054 494.61341858 271.36842537 C494.22507613 273.46767006 493.83673232 275.56691449 493.44838715 277.66615868 C491.12098811 290.24728443 488.79409679 302.82850389 486.46795177 315.40986156 C484.34748409 326.87877638 482.22665134 338.34762364 480.10546875 349.81640625 C479.9161229 350.84018214 479.72677706 351.86395803 479.53169346 352.91875744 C474.24976932 381.47666052 468.9529436 410.03175594 463.64039111 438.58397704 C462.37220611 445.40010873 461.10491311 452.21640573 459.83825684 459.03282166 C459.66347691 459.97336142 459.48869698 460.91390118 459.30862069 461.88294214 C458.61314409 465.62558906 457.91769217 469.36824056 457.22235632 473.11091363 C455.22420792 483.86586026 453.2228445 494.62019548 451.21567208 505.37346178 C449.98571093 511.9642602 448.75949408 518.55574793 447.53629249 525.1478042 C446.8370239 528.91549205 446.13595535 532.68282199 445.43007851 536.44927788 C444.66987624 540.5056571 443.91790838 544.56351873 443.16674805 548.62158203 C442.83301713 550.39090104 442.83301713 550.39090104 442.49254417 552.19596386 C442.29368425 553.27776582 442.09482433 554.35956778 441.88993835 555.47415161 C441.71676433 556.40350084 441.5435903 557.33285007 441.36516857 558.2903614 C440.97001487 561.2224969 440.93808246 564.04485705 441 567 C473.36526231 567.02293675 505.73052225 567.0405731 538.09579081 567.05106533 C541.93861642 567.05231566 545.781442 567.05361002 549.62426758 567.05493164 C550.38913132 567.05519395 551.15399506 567.05545626 551.94203649 567.05572652 C564.23900927 567.06004815 576.53597726 567.06791587 588.83294722 567.0771528 C601.50169461 567.08658783 614.17043954 567.09207617 626.8391903 567.09408849 C633.93354602 567.09532362 641.02789176 567.09825585 648.12224388 567.10573006 C677.76248678 567.13608666 707.37654545 567.09564268 737 566 C744.98779174 525.67596443 744.98779174 525.67596443 752.80636597 485.31893921 C753.10029622 483.78252332 753.39578865 482.2464054 753.69290161 480.71060181 C754.09673387 478.62041225 754.49463546 476.52918743 754.890625 474.4375 C755.10750977 473.30183594 755.32439453 472.16617187 755.54785156 470.99609375 C756.12435247 467.68100021 756.12435247 467.68100021 756 463 C663.93 463.495 663.93 463.495 570 464 C571.65 456.41 573.3 448.82 575 441 C576.67480058 432.64942453 576.67480058 432.64942453 578.31086731 424.29180908 C578.49279947 423.34961769 578.67473164 422.4074263 578.8621769 421.43668365 C579.04816633 420.4727343 579.23415577 419.50878494 579.42578125 418.515625 C579.82205094 416.47057261 580.21847242 414.42554962 580.61503601 412.3805542 C581.43428487 408.1526334 582.25165776 403.92435572 583.06762695 399.69580078 C584.11407858 394.27372839 585.16552891 388.85263866 586.21833515 383.43179703 C587.0327229 379.23558004 587.84447413 375.03885641 588.65541649 370.84197235 C589.04253338 368.84028811 589.43048813 366.83876572 589.8192997 364.83740997 C590.35789866 362.06301804 590.89293193 359.2879621 591.42700195 356.51269531 C591.58746002 355.68999649 591.74791809 354.86729767 591.91323853 354.01966858 C592.49778091 350.96622389 593 348.1168286 593 345 C655.7 345 718.4 345 783 345 C784.13456192 338.75990942 785.26425332 332.53608085 786.296875 326.28125 C786.53294419 324.85644286 786.76902884 323.43163828 787.00512695 322.00683594 C787.187202 320.90511047 787.187202 320.90511047 787.37295532 319.78112793 C789.11704497 309.22935029 790.87432278 298.68010516 792.69140625 288.140625 C792.8281778 287.34688477 792.96494934 286.55314453 793.10586548 285.73535156 C793.76210307 281.93049629 794.42097865 278.12611728 795.08300781 274.32226562 C795.32230703 272.93880925 795.56156691 271.55534606 795.80078125 270.171875 C796.00872314 268.9765918 796.21666504 267.78130859 796.4309082 266.54980469 C798.01657414 256.65894982 798 248.32956539 798 238 C736.95 238 675.9 238 613 238 C623 184.75 623 184.75 626.1640625 167.93261719 C627.09594035 162.96044781 627.09594035 162.96044781 628.02685547 157.98809814 C628.44219238 155.77219094 628.85896124 153.55655184 629.27685547 151.34112549 C629.90928736 147.98682664 630.53718112 144.63170715 631.1640625 141.27636719 C631.35142975 140.28834484 631.538797 139.30032249 631.73184204 138.28236008 C631.98373795 136.92645201 631.98373795 136.92645201 632.24072266 135.54315186 C632.38820953 134.75778423 632.53569641 133.97241661 632.68765259 133.16324997 C633.09527072 130.70445637 633.09527072 130.70445637 633 127 C633.77356307 127.00092179 634.54712614 127.00184359 635.34413052 127.00279331 C654.33269149 127.02506138 673.3212498 127.04151383 692.30982113 127.05181217 C701.49325472 127.05692715 710.6766795 127.06387603 719.86010742 127.07543945 C727.88205124 127.0855354 735.90398867 127.09188811 743.92593867 127.09408849 C748.15741524 127.09537083 752.38887356 127.09829347 756.62034416 127.10573006 C778.43407863 127.14260899 800.20021813 126.80741639 822 126 C823.16389983 122.6186344 824.23830398 119.30998067 824.92385864 115.79925537 C825.07806274 115.01979553 825.23226685 114.24033569 825.3911438 113.43725586 C825.55226654 112.60170166 825.71338928 111.76614746 825.87939453 110.90527344 C826.05525085 110.01028137 826.23110718 109.11528931 826.41229248 108.19317627 C826.98967817 105.24931983 827.56135204 102.30438689 828.1328125 99.359375 C828.53322515 97.31002161 828.93393539 95.26072634 829.33493042 93.21148682 C830.17284885 88.92499519 831.00810751 84.63799696 831.84130859 80.35058594 C832.91112767 74.84603628 833.98611758 69.34251267 835.06289864 63.83932114 C835.88968138 59.61213833 836.71448312 55.38457107 837.53860092 51.15686798 C837.93448537 49.12652203 838.33081913 47.09626364 838.72760391 45.06609344 C839.28011012 42.23681258 839.83012717 39.40705961 840.37939453 36.57714844 C840.62715134 35.31167175 840.62715134 35.31167175 840.87991333 34.02062988 C841.69951111 30.0396755 841.69951111 30.0396755 842 26 C742.34 26 642.68 26 540 26 Z M-158 184 C-161.1342065 187.56923832 -164.08146018 191.25357995 -167 195 C-167.81082031 195.99386719 -168.62164062 196.98773438 -169.45703125 198.01171875 C-176.02190284 206.14097988 -181.1960513 214.73461044 -186 224 C-186.33741211 224.63824707 -186.67482422 225.27649414 -187.02246094 225.93408203 C-197.43039303 245.83100197 -203.94117383 267.97914131 -208 290 C-208.16226074 290.84755859 -208.32452148 291.69511719 -208.49169922 292.56835938 C-215.51924451 330.77383782 -214.02871024 377.1338667 -191.7890625 410.296875 C-177.08686942 430.64466171 -156.33431957 447.89343947 -131 452 C-96.70612308 457.31050221 -62.2177633 449.84801229 -33.77734375 430.03515625 C-11.60271483 413.78623688 8.61952537 391.76094927 21 367 C61.26 366.67 101.52 366.34 143 366 C146.25875 347.97375 149.5175 329.9475 152.875 311.375 C153.90093262 305.70747559 154.92686523 300.03995117 155.98388672 294.20068359 C156.91026587 289.06898502 156.91026587 289.06898502 157.83596802 283.93716431 C158.24494232 281.6717767 158.65491297 279.40656882 159.06570435 277.14151001 C159.69187891 273.68770589 160.31477398 270.23332386 160.93701172 266.77880859 C161.11718275 265.78929388 161.29735378 264.79977917 161.48298454 263.78027916 C162.843407 256.19809506 163.90843095 248.64098336 165 241 C128.04 241 91.08 241 53 241 C52.67 237.7 52.34 234.4 52 231 C47.6572931 207.43803126 38.14270793 185.91058079 22 168 C21.27167969 167.14148438 20.54335938 166.28296875 19.79296875 165.3984375 C4.99576452 148.24300982 -16.4387138 136.26074865 -39.23046875 134.1640625 C-87.35887464 131.31301448 -125.46256744 149.34009956 -158 184 Z M329 145 C327.6567749 149.70128784 326.53607413 154.05394626 325.67138672 158.8215332 C325.55405182 159.46307846 325.43671692 160.10462372 325.31582642 160.76560974 C324.93368356 162.86005984 324.55657186 164.9553791 324.1796875 167.05078125 C323.91376024 168.51576836 323.64757157 169.98070803 323.38113403 171.44560242 C322.82596222 174.50216269 322.2731448 177.55913589 321.72216797 180.61645508 C321.01516336 184.53911453 320.30347217 188.46090539 319.59019279 192.38242817 C319.0414673 195.40096125 318.4945743 198.41982389 317.94830704 201.43880272 C317.68637435 202.88580156 317.42401374 204.332723 317.16122055 205.77956581 C316.79564828 207.79453607 316.43267144 209.8099767 316.06982422 211.82543945 C315.75910477 213.54583183 315.75910477 213.54583183 315.44210815 215.30097961 C314.94611703 217.87311777 314.94611703 217.87311777 315 220 C372.09 220 429.18 220 488 220 C491.88804529 201.53111171 491.88804529 201.53111171 495.45703125 183.0078125 C495.64972092 181.95890839 495.84241058 180.91000427 496.04093933 179.82931519 C496.43614427 177.67454883 496.82999183 175.51953304 497.22241211 173.36425781 C497.82626256 170.04945114 498.43532084 166.7356285 499.04492188 163.421875 C499.43258888 161.3047419 499.81997035 159.18755649 500.20703125 157.0703125 C500.38820999 156.08410919 500.56938873 155.09790588 500.75605774 154.08181763 C501.0021302 152.72671585 501.0021302 152.72671585 501.25317383 151.34423828 C501.39797684 150.55058868 501.54277985 149.75693909 501.69197083 148.9392395 C502.05229118 146.99805224 502.05229118 146.99805224 502 145 C444.91 145 387.82 145 329 145 Z " fill="#008E59" transform="translate(337,3)"/>
<path d="M0 0 C39.20353751 -0.06046833 78.40090425 0.06263408 117.60328674 0.40385818 C121.57548391 0.43815168 125.54768869 0.47144982 129.51989746 0.50436401 C176.34789385 0.89298138 223.17437579 1.38868305 270 2 C268.49117053 9.24273045 266.97865581 16.48468133 265.46161938 23.72569752 C264.75707341 27.08914612 264.05373047 30.45283635 263.35327148 33.81713867 C262.54522912 37.69788563 261.73171169 41.57747547 260.91796875 45.45703125 C260.67096725 46.64706253 260.42396576 47.83709381 260.16947937 49.06318665 C258.6846245 56.11776585 256.9879061 63.06996815 255 70 C246.18790586 70.18929306 237.37536608 70.35148032 228.5625 70.5 C227.85842514 70.51187725 227.15435028 70.5237545 226.42893982 70.53599167 C191.70451649 71.11228906 156.97802824 71.08435107 122.25 71.0625 C121.5560282 71.06207577 120.8620564 71.06165154 120.14705515 71.06121445 C102.09802485 71.04999645 84.04900981 71.02966102 66 71 C65.88147171 72.08786301 65.76294342 73.17572601 65.64082336 74.29655457 C64.96526504 79.67626557 63.8559134 84.95068807 62.74682617 90.25512695 C62.51901962 91.35718979 62.29121307 92.45925262 62.0565033 93.5947113 C61.30498814 97.2265294 60.54901229 100.85740338 59.79296875 104.48828125 C59.26562856 107.03202393 58.73855874 109.57582267 58.21174622 112.11967468 C57.10649161 117.4536265 55.99934992 122.78718064 54.89038086 128.12036133 C53.34020281 135.57537598 51.79384861 143.03117964 50.24839818 150.48717558 C41.38377381 193.25055829 41.38377381 193.25055829 37 214 C37.62968185 213.99777939 38.25936371 213.99555878 38.90812683 213.99327087 C47.66790409 213.96418572 56.42768309 213.94751342 65.1875 213.9375 C65.93063068 213.93664398 66.67376137 213.93578796 67.43941116 213.93490601 C101.94020368 213.90013183 136.43843584 214.19146655 170.9375 214.5 C171.60630424 214.50597372 172.27510848 214.51194743 172.96417952 214.51810217 C190.30950568 214.67314147 207.65477643 214.83388219 225 215 C223.42547077 226.20166985 221.8466977 237.39705767 219.95703125 248.55078125 C219.80278687 249.47322632 219.64854248 250.39567139 219.48962402 251.34606934 C218.93331435 254.6686766 218.37271075 257.99054806 217.8125 261.3125 C217.13199364 265.35954993 216.45213009 269.40670782 215.7722168 273.45385742 C215.43435152 275.46449449 215.09647693 277.47513 214.7585907 279.48576355 C214.61251719 280.35502063 214.46644369 281.22427771 214.31594372 282.11987591 C214.21168229 282.74031686 214.10742086 283.36075781 214 284 C173.52936596 284.79954657 133.0637562 285.24825217 92.58663487 285.51740873 C84.96522829 285.56821236 77.34384796 285.62256451 69.72246718 285.67708123 C54.14833598 285.78841227 38.57418006 285.89571073 23 286 C22.81503118 286.88895651 22.81503118 286.88895651 22.62632561 287.79587173 C19.59586368 302.35992267 16.56446694 316.92377881 13.53208733 331.48743057 C12.06554603 338.53091651 10.59929687 345.57446301 9.13378906 352.61816406 C7.85326672 358.77276155 6.57214172 364.92723327 5.29035485 371.08156753 C4.6145805 374.32630809 3.93915598 377.5711204 3.26427841 380.81604767 C0.4337008 394.42498993 -2.41749684 408.02936628 -5.31591797 421.62402344 C-5.57036242 422.82265141 -5.82480686 424.02127937 -6.08696175 425.2562294 C-6.32315664 426.36000805 -6.55935154 427.4637867 -6.80270386 428.60101318 C-7.01029768 429.57387142 -7.2178915 430.54672966 -7.43177605 431.54906845 C-8 434 -8 434 -9 437 C54.69 437 118.38 437 184 437 C181.53750423 451.77497459 179.02532298 466.38752023 175.90795898 481.01733398 C175.29710294 483.88477589 174.69393853 486.75376344 174.09179688 489.62304688 C173.7035517 491.46363173 173.31489675 493.3041302 172.92578125 495.14453125 C172.65704948 496.41923027 172.65704948 496.41923027 172.38288879 497.71968079 C172.21568832 498.50288193 172.04848785 499.28608307 171.8762207 500.09301758 C171.6578228 501.12027702 171.6578228 501.12027702 171.43501282 502.16828918 C171 504 171 504 170 507 C82.22 507 -5.56 507 -96 507 C-94.87500359 495.75003593 -94.87500359 495.75003593 -93.7975769 490.09877014 C-93.55499743 488.81485319 -93.31241796 487.53093624 -93.0624876 486.20811272 C-92.79417779 484.81198529 -92.52578715 483.41587339 -92.25732422 482.01977539 C-91.97143549 480.51566087 -91.68593149 479.01147318 -91.40077686 477.50721931 C-90.6213526 473.40154728 -89.83654697 469.29692009 -89.05082488 465.19244933 C-88.20679485 460.77818148 -87.36783332 456.36295021 -86.52827454 451.9478302 C-85.07757946 444.32249467 -83.62376104 436.69776011 -82.16781616 429.07342529 C-80.04629724 417.96350682 -77.92982588 406.8526313 -75.81465471 395.74150276 C-72.63247085 379.02562468 -69.44763596 362.31025341 -66.26048529 345.59532166 C-60.17491194 313.67964882 -54.10317169 281.76135006 -48.03393364 249.84256744 C-46.14006891 239.88272894 -44.24531462 229.92306014 -42.34982109 219.96353149 C-35.7806186 185.44683545 -29.22476009 150.92766888 -22.69693184 116.40312195 C-21.66368064 110.93856595 -20.62997343 105.47409627 -19.59617615 100.00964355 C-19.08897515 97.32855482 -18.58178119 94.64746475 -18.07459128 91.96637392 C-17.73995628 90.19744008 -17.40531509 88.42850742 -17.07066762 86.65957594 C-15.11743388 76.33449649 -13.16623117 66.00903766 -11.21831995 55.6829527 C-10.01740458 49.31745468 -8.81445096 42.9523441 -7.6098842 36.58753604 C-6.78233775 32.21427035 -5.95727718 27.84054604 -5.13416344 23.46644402 C-4.51974329 20.20560759 -3.9014418 16.94550986 -3.28369141 13.68530273 C-3.06473804 12.51749205 -2.84578466 11.34968136 -2.62019634 10.14648247 C-2.31943801 8.56527957 -2.31943801 8.56527957 -2.01260376 6.95213318 C-1.83993296 6.03740958 -1.66726215 5.12268599 -1.4893589 4.18024349 C-1 2 -1 2 0 0 Z " fill="#008E59" transform="translate(890,45)"/>
<path d="M0 0 C0.79080963 0.00060425 1.58161926 0.0012085 2.39639282 0.00183105 C55.03167803 0.11080818 102.33006154 19.57282239 140.375 56.1875 C141.07753906 56.826875 141.78007812 57.46625 142.50390625 58.125 C154.11811657 69.01185574 162.23485012 83.12270913 169.375 97.1875 C169.78073242 97.98414063 170.18646484 98.78078125 170.60449219 99.6015625 C181.03731474 120.45066071 195.375 151.45001809 195.375 175.1875 C171.945 175.1875 148.515 175.1875 124.375 175.1875 C122.065 168.2575 119.755 161.3275 117.375 154.1875 C109.82281778 136.60701025 100.22617165 122.28051255 87.375 108.1875 C86.69953125 107.43984375 86.0240625 106.6921875 85.328125 105.921875 C62.10995386 81.51302842 32.10821545 71.26517218 -0.95849609 70.23535156 C-35.04478922 69.62365833 -68.78455529 78.56603065 -95.625 100.1875 C-97.12546875 101.35925781 -97.12546875 101.35925781 -98.65625 102.5546875 C-113.35877189 114.47264085 -127.33196094 128.19127682 -138.43798828 143.54736328 C-139.6574619 145.23235378 -140.9030705 146.89560946 -142.15234375 148.55859375 C-182.24655778 202.57184368 -197.71178894 272.90559804 -189.625 339.1875 C-184.15302571 375.94043959 -165.32413869 410.48538238 -135.375 432.9375 C-127.9304628 438.33071749 -120.01278809 442.46788926 -111.625 446.1875 C-110.00851563 446.91066406 -110.00851563 446.91066406 -108.359375 447.6484375 C-75.16276994 461.41084915 -36.31433412 458.27391075 -3.4609375 445.18359375 C26.99176793 432.42173955 56.94660889 408.21757269 75.10069275 380.55825806 C78.30971231 376.18542434 80.72547573 373.5733604 86.11477661 372.31268311 C90.70493106 371.90334627 95.2794588 372.06104501 99.87890625 372.2109375 C101.56993913 372.22961685 103.26102657 372.2438382 104.95213318 372.2538147 C109.37753899 372.29178035 113.7995993 372.38980443 118.22369385 372.50085449 C122.74827825 372.60363276 127.27340987 372.64892481 131.79882812 372.69921875 C140.65901249 372.80608085 149.5167268 372.97647366 158.375 373.1875 C150.36120866 393.37347394 138.87743318 412.21722879 125.375 429.1875 C124.63636719 430.11820312 123.89773438 431.04890625 123.13671875 432.0078125 C109.65902464 448.7210843 94.61774474 465.29898373 77.375 478.1875 C76.25384859 479.04940416 75.13275894 479.91138867 74.01171875 480.7734375 C64.5586141 487.95272154 54.64593716 494.24768092 44.375 500.1875 C43.68712402 500.58710937 42.99924805 500.98671875 42.29052734 501.3984375 C16.60640047 516.13513027 -10.31279606 523.51366725 -39.625 526.1875 C-40.40633301 526.25952637 -41.18766602 526.33155273 -41.99267578 526.40576172 C-87.53670781 530.33035602 -140.35227592 526.56076607 -177.5625 496.75 C-179.26757953 495.24890238 -180.95515563 493.72769806 -182.625 492.1875 C-183.99398437 490.97707031 -183.99398437 490.97707031 -185.390625 489.7421875 C-197.6102015 478.79684491 -209.78283395 467.35524169 -219.625 454.1875 C-220.7078125 452.75470703 -220.7078125 452.75470703 -221.8125 451.29296875 C-247.97364691 415.18513577 -259.15684894 369.17445727 -260.625 325.1875 C-260.64836426 324.49527344 -260.67172852 323.80304688 -260.69580078 323.08984375 C-261.66334814 288.8110231 -256.22609777 254.28853456 -247.625 221.1875 C-247.36493164 220.18315918 -247.10486328 219.17881836 -246.83691406 218.14404297 C-236.38884553 178.55775637 -218.05137389 141.009905 -193.625 108.1875 C-193.1909082 107.60178223 -192.75681641 107.01606445 -192.30957031 106.41259766 C-176.52012044 85.21638382 -158.55271256 64.43862874 -137.625 48.1875 C-136.61953125 47.38828125 -135.6140625 46.5890625 -134.578125 45.765625 C-94.63041721 14.21272537 -50.61663002 -0.07174293 0 0 Z " fill="#008E59" transform="translate(288.625,32.8125)"/>
<path d="M0 0 C88.44 0 176.88 0 268 0 C258 49 258 49 254 67 C238.85425121 67.17486417 223.70843039 67.34161748 208.5625 67.5 C207.42720604 67.51187725 206.29191208 67.5237545 205.12221527 67.53599167 C170.45595491 67.8959632 135.79314795 68.09310192 101.125 68.0625 C100.14806812 68.06164398 99.17113625 68.06078796 98.16460037 68.05990601 C86.44304454 68.04884296 74.72152547 68.02864477 63 68 C62.88469972 68.78341955 62.76939943 69.5668391 62.6506052 70.37399864 C61.44452958 78.40895948 60.03564502 86.38509205 58.49389648 94.36181641 C58.25137146 95.62686005 58.00884644 96.89190369 57.75897217 98.19528198 C57.1021743 101.62065382 56.44239781 105.04544528 55.78191638 108.47010851 C55.08822285 112.06916985 54.39697012 115.66870011 53.70533752 119.26815796 C52.54622974 125.29840437 51.38515723 131.32826995 50.22290039 137.35791016 C48.87961267 144.3268535 47.53953808 151.29640901 46.20113128 158.26629126 C44.90981475 164.99052527 43.61620122 171.71431541 42.32155037 178.43790817 C41.77176915 181.29335532 41.22280393 184.14895755 40.6744976 187.00468826 C39.91092253 190.98095792 39.14399515 194.9565737 38.37670898 198.93212891 C38.14967789 200.1165155 37.92264679 201.3009021 37.68873596 202.5211792 C37.47989777 203.60035614 37.27105957 204.67953308 37.05589294 205.79141235 C36.87505378 206.73042704 36.69421461 207.66944172 36.50789547 208.63691139 C36 211 36 211 35 214 C98.03 214 161.06 214 226 214 C224.87471324 228.62872789 224.87471324 228.62872789 224.16796875 233.60058594 C223.93267456 235.27601471 223.93267456 235.27601471 223.69262695 236.98529053 C223.52593506 238.1399884 223.35924316 239.29468628 223.1875 240.484375 C222.92682739 242.31769379 222.92682739 242.31769379 222.66088867 244.18804932 C222.29649586 246.7428487 221.93001887 249.29735164 221.56152344 251.8515625 C221.1841347 254.47162482 220.80903653 257.09186854 220.43847656 259.71289062 C219.90095658 263.51237285 219.35769944 267.31098795 218.8125 271.109375 C218.56246216 272.87785797 218.56246216 272.87785797 218.30737305 274.68206787 C218.07207886 276.30075775 218.07207886 276.30075775 217.83203125 277.95214844 C217.69514893 278.90555115 217.5582666 279.85895386 217.41723633 280.84124756 C217 283 217 283 216 284 C213.52108029 284.09771507 211.07005223 284.12995957 208.59068298 284.12025452 C207.41333827 284.12153615 207.41333827 284.12153615 206.21220881 284.12284368 C203.56194141 284.12450087 200.91173625 284.11897324 198.26147461 284.11352539 C196.36972556 284.11324354 194.4779764 284.1134012 192.58622742 284.1139679 C187.4335489 284.11425597 182.28089345 284.10835765 177.12822032 284.10139394 C171.74967104 284.09516204 166.3711213 284.09455673 160.99256897 284.09336853 C150.79988176 284.09025473 140.60720521 284.08204069 130.41452271 284.07201904 C118.81375432 284.06085941 107.21298543 284.05534783 95.61221302 284.05032361 C71.74146942 284.03985811 47.87073531 284.02225773 24 284 C23.88322403 285.23921204 23.76644806 286.47842407 23.64613342 287.75518799 C22.99858204 293.55000515 21.84293518 299.21077307 20.66186523 304.91699219 C20.42378458 306.08346692 20.18570393 307.24994165 19.94040871 308.45176411 C19.28725815 311.64764988 18.63051621 314.84277173 17.97213674 318.03758359 C17.27048799 321.44670151 16.57346438 324.85676526 15.87583923 328.26670837 C14.53167648 334.83300827 13.18313578 341.39840125 11.83287352 347.9634493 C10.74882326 353.23450478 9.66636791 358.50588543 8.58502197 363.77749634 C8.43207287 364.52310875 8.27912376 365.26872115 8.12153983 366.03692788 C7.81249359 367.54350065 7.5034474 369.05007343 7.19440126 370.55664623 C3.87618548 386.73106487 0.54939834 402.90371414 -2.78041339 419.07574898 C-3.90823377 424.55352277 -5.03494584 430.03152409 -6.16148472 435.50956154 C-8.47537467 446.76065649 -10.79555979 458.0104306 -13.12293625 469.25874329 C-13.62523114 471.68861815 -14.12626818 474.11874941 -14.62698364 476.5489502 C-15.39248393 480.26310732 -16.16168944 483.97647561 -16.93420219 487.68918037 C-17.33749481 489.63146771 -17.73717986 491.57450303 -18.13673401 493.51756287 C-18.37085495 494.63800491 -18.60497589 495.75844696 -18.84619141 496.9128418 C-19.04677155 497.88037888 -19.24735168 498.84791595 -19.45401001 499.84477234 C-20 502 -20 502 -21 503 C-23.26991887 503.09439978 -25.54281967 503.11742226 -27.81469727 503.11352539 C-28.88293228 503.11374443 -28.88293228 503.11374443 -29.9727478 503.1139679 C-32.33733112 503.1132687 -34.70183661 503.10547606 -37.06640625 503.09765625 C-38.70165463 503.09579209 -40.33690357 503.09436818 -41.97215271 503.09336853 C-46.28434785 503.08954318 -50.59650952 503.07971275 -54.90869141 503.06866455 C-59.30565946 503.0584508 -63.70263289 503.05387099 -68.09960938 503.04882812 C-76.73308831 503.03809049 -85.36654 503.02101387 -94 503 C-91.17769227 486.79060627 -88.19293812 470.61535081 -85.11328125 454.453125 C-84.840569 453.02121197 -84.840569 453.02121197 -84.56234741 451.5603714 C-83.78008216 447.45320458 -82.99758543 443.34608191 -82.21486282 439.23900223 C-71.83790854 384.77995048 -61.73504893 330.27140934 -51.67881584 275.7523694 C-48.55891841 258.83865209 -45.4379696 241.92512868 -42.31640625 225.01171875 C-42.1373674 224.04160095 -41.95832854 223.07148315 -41.77386427 222.07196784 C-35.14373899 186.14781959 -28.47903608 150.23026139 -21.76515961 114.32167053 C-21.08113156 110.66217731 -20.39779098 107.0025564 -19.71466064 103.34289551 C-19.28194659 101.02579662 -18.8492279 98.70869859 -18.41650391 96.39160156 C-18.23507025 95.41908825 -18.05363659 94.44657494 -17.86670494 93.44459152 C-12.04221498 62.2701182 -6.00952606 31.1402714 0 0 Z " fill="#008E59" transform="translate(572,45)"/>
</svg>
